<svg id="visual" viewBox="0 0 675 900" width="675" height="900" xmlns="http://www.w3.org/2000/svg" xmlns:xlink="http://www.w3.org/1999/xlink" version="1.1"><rect x="0" y="0" width="675" height="900" fill="#ffffff"></rect><path d="M0 568L96 608L193 615L289 650L386 624L482 533L579 570L675 541L675 901L579 901L482 901L386 901L289 901L193 901L96 901L0 901Z" fill="#00bcff"></path><path d="M0 597L96 703L193 695L289 710L386 639L482 683L579 636L675 701L675 901L579 901L482 901L386 901L289 901L193 901L96 901L0 901Z" fill="#00afff"></path><path d="M0 741L96 701L193 682L289 698L386 703L482 673L579 691L675 730L675 901L579 901L482 901L386 901L289 901L193 901L96 901L0 901Z" fill="#00a0ff"></path><path d="M0 732L96 744L193 761L289 735L386 789L482 727L579 806L675 769L675 901L579 901L482 901L386 901L289 901L193 901L96 901L0 901Z" fill="#0090ff"></path><path d="M0 838L96 852L193 798L289 825L386 853L482 831L579 812L675 821L675 901L579 901L482 901L386 901L289 901L193 901L96 901L0 901Z" fill="#2b7fff"></path></svg>