<svg id="visual" viewBox="0 0 900 450" width="900" height="450" xmlns="http://www.w3.org/2000/svg" xmlns:xlink="http://www.w3.org/1999/xlink" version="1.1"><rect x="0" y="0" width="900" height="450" fill="#2B7FFF"></rect><path d="M0 327L21.5 328C43 329 86 331 128.8 328.5C171.7 326 214.3 319 257.2 313.7C300 308.3 343 304.7 385.8 304.3C428.7 304 471.3 307 514.2 304.3C557 301.7 600 293.3 642.8 288.2C685.7 283 728.3 281 771.2 285C814 289 857 299 878.5 304L900 309L900 451L878.5 451C857 451 814 451 771.2 451C728.3 451 685.7 451 642.8 451C600 451 557 451 514.2 451C471.3 451 428.7 451 385.8 451C343 451 300 451 257.2 451C214.3 451 171.7 451 128.8 451C86 451 43 451 21.5 451L0 451Z" fill="#00a6f4"></path><path d="M0 314L21.5 314.8C43 315.7 86 317.3 128.8 318.8C171.7 320.3 214.3 321.7 257.2 323.7C300 325.7 343 328.3 385.8 331.8C428.7 335.3 471.3 339.7 514.2 343.7C557 347.7 600 351.3 642.8 345.8C685.7 340.3 728.3 325.7 771.2 318.7C814 311.7 857 312.3 878.5 312.7L900 313L900 451L878.5 451C857 451 814 451 771.2 451C728.3 451 685.7 451 642.8 451C600 451 557 451 514.2 451C471.3 451 428.7 451 385.8 451C343 451 300 451 257.2 451C214.3 451 171.7 451 128.8 451C86 451 43 451 21.5 451L0 451Z" fill="#73bbf7"></path><path d="M0 365L21.5 360.3C43 355.7 86 346.3 128.8 346.7C171.7 347 214.3 357 257.2 362.7C300 368.3 343 369.7 385.8 364.8C428.7 360 471.3 349 514.2 343.5C557 338 600 338 642.8 344.3C685.7 350.7 728.3 363.3 771.2 369.7C814 376 857 376 878.5 376L900 376L900 451L878.5 451C857 451 814 451 771.2 451C728.3 451 685.7 451 642.8 451C600 451 557 451 514.2 451C471.3 451 428.7 451 385.8 451C343 451 300 451 257.2 451C214.3 451 171.7 451 128.8 451C86 451 43 451 21.5 451L0 451Z" fill="#a8d1fa"></path><path d="M0 361L21.5 362.2C43 363.3 86 365.7 128.8 369.7C171.7 373.7 214.3 379.3 257.2 379.5C300 379.7 343 374.3 385.8 375C428.7 375.7 471.3 382.3 514.2 383.7C557 385 600 381 642.8 379C685.7 377 728.3 377 771.2 377.3C814 377.7 857 378.3 878.5 378.7L900 379L900 451L878.5 451C857 451 814 451 771.2 451C728.3 451 685.7 451 642.8 451C600 451 557 451 514.2 451C471.3 451 428.7 451 385.8 451C343 451 300 451 257.2 451C214.3 451 171.7 451 128.8 451C86 451 43 451 21.5 451L0 451Z" fill="#d5e8fd"></path><path d="M0 424L21.5 420C43 416 86 408 128.8 405.8C171.7 403.7 214.3 407.3 257.2 407.3C300 407.3 343 403.7 385.8 405.7C428.7 407.7 471.3 415.3 514.2 418.8C557 422.3 600 421.7 642.8 420.2C685.7 418.7 728.3 416.3 771.2 416.5C814 416.7 857 419.3 878.5 420.7L900 422L900 451L878.5 451C857 451 814 451 771.2 451C728.3 451 685.7 451 642.8 451C600 451 557 451 514.2 451C471.3 451 428.7 451 385.8 451C343 451 300 451 257.2 451C214.3 451 171.7 451 128.8 451C86 451 43 451 21.5 451L0 451Z" fill="#ffffff"></path></svg>