<svg id="visual" viewBox="0 0 675 900" width="675" height="900" xmlns="http://www.w3.org/2000/svg" xmlns:xlink="http://www.w3.org/1999/xlink" version="1.1"><rect x="0" y="0" width="675" height="900" fill="#2B7FFF"></rect><path d="M0 531L16 532.5C32 534 64 537 96.2 549.8C128.3 562.7 160.7 585.3 192.8 586.7C225 588 257 568 289.2 556.7C321.3 545.3 353.7 542.7 385.8 545.7C418 548.7 450 557.3 482.2 557C514.3 556.7 546.7 547.3 578.8 540.7C611 534 643 530 659 528L675 526L675 901L659 901C643 901 611 901 578.8 901C546.7 901 514.3 901 482.2 901C450 901 418 901 385.8 901C353.7 901 321.3 901 289.2 901C257 901 225 901 192.8 901C160.7 901 128.3 901 96.2 901C64 901 32 901 16 901L0 901Z" fill="#00a6f4"></path><path d="M0 637L16 643.2C32 649.3 64 661.7 96.2 665.5C128.3 669.3 160.7 664.7 192.8 652.8C225 641 257 622 289.2 625.8C321.3 629.7 353.7 656.3 385.8 673C418 689.7 450 696.3 482.2 688C514.3 679.7 546.7 656.3 578.8 657.8C611 659.3 643 685.7 659 698.8L675 712L675 901L659 901C643 901 611 901 578.8 901C546.7 901 514.3 901 482.2 901C450 901 418 901 385.8 901C353.7 901 321.3 901 289.2 901C257 901 225 901 192.8 901C160.7 901 128.3 901 96.2 901C64 901 32 901 16 901L0 901Z" fill="#73bbf7"></path><path d="M0 708L16 704.7C32 701.3 64 694.7 96.2 688C128.3 681.3 160.7 674.7 192.8 671C225 667.3 257 666.7 289.2 667.2C321.3 667.7 353.7 669.3 385.8 679.2C418 689 450 707 482.2 707.2C514.3 707.3 546.7 689.7 578.8 695.8C611 702 643 732 659 747L675 762L675 901L659 901C643 901 611 901 578.8 901C546.7 901 514.3 901 482.2 901C450 901 418 901 385.8 901C353.7 901 321.3 901 289.2 901C257 901 225 901 192.8 901C160.7 901 128.3 901 96.2 901C64 901 32 901 16 901L0 901Z" fill="#a8d1fa"></path><path d="M0 780L16 771C32 762 64 744 96.2 735.8C128.3 727.7 160.7 729.3 192.8 737.8C225 746.3 257 761.7 289.2 772.7C321.3 783.7 353.7 790.3 385.8 781.5C418 772.7 450 748.3 482.2 736.5C514.3 724.7 546.7 725.3 578.8 727C611 728.7 643 731.3 659 732.7L675 734L675 901L659 901C643 901 611 901 578.8 901C546.7 901 514.3 901 482.2 901C450 901 418 901 385.8 901C353.7 901 321.3 901 289.2 901C257 901 225 901 192.8 901C160.7 901 128.3 901 96.2 901C64 901 32 901 16 901L0 901Z" fill="#d5e8fd"></path><path d="M0 801L16 802.8C32 804.7 64 808.3 96.2 816.8C128.3 825.3 160.7 838.7 192.8 845.3C225 852 257 852 289.2 842.8C321.3 833.7 353.7 815.3 385.8 813.8C418 812.3 450 827.7 482.2 836.8C514.3 846 546.7 849 578.8 848.3C611 847.7 643 843.3 659 841.2L675 839L675 901L659 901C643 901 611 901 578.8 901C546.7 901 514.3 901 482.2 901C450 901 418 901 385.8 901C353.7 901 321.3 901 289.2 901C257 901 225 901 192.8 901C160.7 901 128.3 901 96.2 901C64 901 32 901 16 901L0 901Z" fill="#ffffff"></path></svg>