<?xml version="1.0" encoding="UTF-8"?>
<svg id="Layer_1" xmlns="http://www.w3.org/2000/svg" viewBox="0 0 1024 1024">
  <defs>
    <style>
      .cls-1 {
        fill: #fff;
      }
    </style>
  </defs>
  <circle cx="512" cy="512" r="512"/>
  <path class="cls-1" d="M551.69,860.59v-335.65h-133.09v-118.81h419.39v118.81h-133.09v335.65h-153.22Z"/>
  <path class="cls-1" d="M624.86,299.83c-21.65-33.76-51.72-59.83-90.24-78.23-38.52-18.39-83.1-27.59-133.74-27.59h-223.98v454.45h223.98c50.64,0,95.22-9.19,133.74-27.59,38.52-18.39,68.6-44.57,90.24-78.55,21.64-33.97,32.46-74.55,32.46-121.73s-10.82-87-32.46-120.76Z"/>
  <path d="M418.39,525.95h133.09v86.91c30.43-17.6,54.83-40.76,73.16-69.53,21.64-33.97,32.46-74.55,32.46-121.73,0-3.97-.24-17.07-.33-16.94-.81,1.21-1.51,2.48-2.97,2.48h-235.41v118.81Z"/>
</svg>