<?xml version="1.0" encoding="UTF-8"?>
<svg id="Layer_1" xmlns="http://www.w3.org/2000/svg" viewBox="0 0 1025 1025">
  <defs>
    <style>
      .cls-1 {
        fill: #1447e6;
      }

      .cls-2 {
        fill: #e2e8f0;
      }

      .cls-3 {
        fill: #155dfc;
      }
    </style>
  </defs>
  <circle class="cls-2" cx="512.5" cy="512.5" r="512.5"/>
  <path class="cls-3" d="M628.12,297.12c-21.26-33.16-50.8-58.76-88.63-76.83-37.83-18.06-81.61-27.1-131.34-27.1h-219.97v446.31h219.97c49.73,0,93.51-9.02,131.34-27.1,37.83-18.06,67.37-43.78,88.63-77.15,21.25-33.36,31.88-73.21,31.88-119.55s-10.63-85.44-31.88-118.59Z"/>
  <path class="cls-3" d="M858.26,520.08c-21.26-33.16-50.8-58.76-88.63-76.83-37.83-18.06-81.61-27.1-131.34-27.1h-219.97v446.31h219.97c49.73,0,93.51-9.02,131.34-27.1,37.83-18.06,67.37-43.78,88.63-77.15,21.25-33.36,31.88-73.21,31.88-119.55s-10.63-85.44-31.88-118.59Z"/>
  <path class="cls-1" d="M640.36,416.64h-219.97v223.21c45.55-1.16,85.94-10.13,121.17-26.96,37.83-18.06,67.37-43.78,88.63-77.15,21.08-33.11,31.71-72.6,31.87-118.48-7.11-.4-14.33-.62-21.7-.62Z"/>
</svg>